<svg width="80" height="80" viewBox="0 0 80 80" fill="none" xmlns="http://www.w3.org/2000/svg">
<circle cx="40" cy="40" r="40" fill="#10121C"/>
<path d="M15.314 30.072C16.7093 30.072 17.89 30.3097 18.856 30.785C19.822 31.245 20.558 31.9043 21.064 32.763C21.57 33.6063 21.823 34.6107 21.823 35.776C21.823 36.466 21.7157 37.1637 21.501 37.869C21.3017 38.559 20.972 39.1877 20.512 39.755C20.0673 40.3223 19.4617 40.7823 18.695 41.135C17.9437 41.4723 17.016 41.641 15.912 41.641H13.52V47H10.185V30.072H15.314ZM15.889 38.398C16.395 38.398 16.8167 38.3137 17.154 38.145C17.4913 37.961 17.752 37.7387 17.936 37.478C18.1353 37.202 18.2733 36.9183 18.35 36.627C18.442 36.3357 18.488 36.0827 18.488 35.868C18.488 35.6993 18.4573 35.477 18.396 35.201C18.35 34.9097 18.2427 34.6183 18.074 34.327C17.9053 34.0357 17.6447 33.7903 17.292 33.591C16.9547 33.3917 16.4947 33.292 15.912 33.292H13.52V38.398H15.889ZM29.2231 47.276C27.9964 47.276 26.9537 47.046 26.0951 46.586C25.2517 46.126 24.6077 45.4897 24.1631 44.677C23.7184 43.8643 23.4961 42.929 23.4961 41.871C23.4961 40.859 23.7567 39.9467 24.2781 39.134C24.7994 38.3213 25.4971 37.6773 26.3711 37.202C27.2451 36.7113 28.2187 36.466 29.2921 36.466C30.7334 36.466 31.9141 36.8877 32.8341 37.731C33.7694 38.559 34.3751 39.7627 34.6511 41.342L26.8311 43.826L26.1181 42.078L31.7761 40.169L31.1091 40.468C30.9864 40.0693 30.7641 39.7243 30.4421 39.433C30.1354 39.1263 29.6677 38.973 29.0391 38.973C28.5637 38.973 28.1421 39.088 27.7741 39.318C27.4214 39.5327 27.1454 39.847 26.9461 40.261C26.7621 40.6597 26.6701 41.135 26.6701 41.687C26.6701 42.3157 26.7851 42.8447 27.0151 43.274C27.2451 43.688 27.5594 44.0023 27.9581 44.217C28.3567 44.4317 28.8014 44.539 29.2921 44.539C29.6447 44.539 29.9821 44.4777 30.3041 44.355C30.6414 44.2323 30.9711 44.0713 31.2931 43.872L32.7191 46.264C32.1824 46.5707 31.5997 46.816 30.9711 47C30.3577 47.184 29.7751 47.276 29.2231 47.276ZM41.223 47.276C40.2876 47.276 39.4366 47.092 38.67 46.724C37.9186 46.3407 37.3206 45.758 36.876 44.976C36.4313 44.194 36.209 43.1973 36.209 41.986C36.209 40.8513 36.439 39.87 36.899 39.042C37.359 38.214 37.9646 37.5777 38.716 37.133C39.4673 36.673 40.2646 36.443 41.108 36.443C42.1046 36.443 42.856 36.6117 43.362 36.949C43.8833 37.271 44.3126 37.6313 44.65 38.03L44.512 38.421L44.811 36.949H47.801V47H44.581V44.815L44.834 45.505C44.8033 45.505 44.7113 45.597 44.558 45.781C44.4046 45.9497 44.1746 46.1567 43.868 46.402C43.5766 46.632 43.2086 46.8313 42.764 47C42.3346 47.184 41.821 47.276 41.223 47.276ZM42.143 44.654C42.5263 44.654 42.8713 44.6003 43.178 44.493C43.4846 44.3703 43.753 44.2017 43.983 43.987C44.213 43.757 44.4123 43.4733 44.581 43.136V40.675C44.4583 40.3377 44.2743 40.054 44.029 39.824C43.7836 39.5787 43.4923 39.3947 43.155 39.272C42.8176 39.134 42.442 39.065 42.028 39.065C41.568 39.065 41.1386 39.1877 40.74 39.433C40.3566 39.663 40.05 39.985 39.82 40.399C39.59 40.813 39.475 41.2883 39.475 41.825C39.475 42.3617 39.5976 42.8447 39.843 43.274C40.0883 43.7033 40.4103 44.0407 40.809 44.286C41.223 44.5313 41.6676 44.654 42.143 44.654ZM59.6519 46.103C59.2072 46.4557 58.6476 46.7393 57.9729 46.954C57.3136 47.1687 56.6619 47.276 56.0179 47.276C54.8679 47.276 53.8636 47.069 53.0049 46.655C52.1616 46.2257 51.5022 45.62 51.0269 44.838C50.5669 44.0407 50.3369 43.0823 50.3369 41.963C50.3369 40.8437 50.5899 39.893 51.0959 39.111C51.6019 38.3137 52.2612 37.708 53.0739 37.294C53.9019 36.88 54.7682 36.673 55.6729 36.673C56.5776 36.673 57.3596 36.7957 58.0189 37.041C58.6936 37.2863 59.2686 37.6083 59.7439 38.007L58.1799 40.077C57.9652 39.9083 57.6662 39.7397 57.2829 39.571C56.9149 39.387 56.4779 39.295 55.9719 39.295C55.5272 39.295 55.1209 39.41 54.7529 39.64C54.3849 39.87 54.0936 40.1843 53.8789 40.583C53.6642 40.9817 53.5569 41.4417 53.5569 41.963C53.5569 42.4537 53.6719 42.906 53.9019 43.32C54.1319 43.734 54.4462 44.0637 54.8449 44.309C55.2589 44.539 55.7419 44.654 56.2939 44.654C56.6466 44.654 56.9686 44.608 57.2599 44.516C57.5666 44.4087 57.8272 44.263 58.0419 44.079L59.6519 46.103ZM67.0698 47.276C65.8431 47.276 64.8004 47.046 63.9418 46.586C63.0984 46.126 62.4544 45.4897 62.0098 44.677C61.5651 43.8643 61.3428 42.929 61.3428 41.871C61.3428 40.859 61.6034 39.9467 62.1248 39.134C62.6461 38.3213 63.3438 37.6773 64.2178 37.202C65.0918 36.7113 66.0654 36.466 67.1388 36.466C68.5801 36.466 69.7608 36.8877 70.6808 37.731C71.6161 38.559 72.2217 39.7627 72.4978 41.342L64.6778 43.826L63.9648 42.078L69.6228 40.169L68.9558 40.468C68.8331 40.0693 68.6108 39.7243 68.2888 39.433C67.9821 39.1263 67.5144 38.973 66.8858 38.973C66.4104 38.973 65.9888 39.088 65.6208 39.318C65.2681 39.5327 64.9921 39.847 64.7928 40.261C64.6088 40.6597 64.5168 41.135 64.5168 41.687C64.5168 42.3157 64.6318 42.8447 64.8618 43.274C65.0918 43.688 65.4061 44.0023 65.8048 44.217C66.2034 44.4317 66.6481 44.539 67.1388 44.539C67.4914 44.539 67.8288 44.4777 68.1508 44.355C68.4881 44.2323 68.8178 44.0713 69.1398 43.872L70.5658 46.264C70.0291 46.5707 69.4464 46.816 68.8178 47C68.2044 47.184 67.6218 47.276 67.0698 47.276Z" fill="white"/>
</svg>
